<?xml version="1.0" encoding="UTF-8"?>
<svg id="Layer_1" xmlns="http://www.w3.org/2000/svg" version="1.1" viewBox="0 0 1920 400.5">
  <!-- Generator: Adobe Illustrator 30.2.1, SVG Export Plug-In . SVG Version: 2.1.1 Build 1)  -->
  <defs>
    <style>
      .st0 {
        fill: #3d7abe;
      }
    </style>
  </defs>
  <path class="st0" d="M974.9,244.6c-32.8.8-62.6,1.1-94.4.1l-1.2,36c-8.9,1.8-16.7,2-26.9.7l.7-80.3c.3-38.5,31.6-67.9,71.1-67.9s47.9-3.1,70.6,1.8c11.6,2.5,9.7,23,9.7,31.8l.3,112.4c-8.7,4.9-19.4,3.1-29.2,1.6l-.7-36.2ZM975.1,217.2c.3-22.6,1.5-37.9-.4-56.8-18.7-.7-35.7-1.3-53,.5-29.1,2.9-48.1,29.2-39.8,56.3h93.2Z"/>
  <path class="st0" d="M1452.5,281.4c-15.5,11.2-31.6-14.8-37-20.3l-79.8-81.5-1.6,101.1c-9.4,2.1-18.4,2.2-27.4-.5l.3-131.9c0-8,2.7-14.9,9-16.7,8.1-2.3,13.8,1.6,19.5,7.6l93,97.6,2-102.8c8.7-1.7,17-2.7,26.9-.3v135.7c0,5.2-2.1,10-4.9,12.1Z"/>
  <path class="st0" d="M1208.8,281.7l-76-77.2c-8.3-8.4-13-19.1-25.2-25-2,34.6-.7,67.1-.5,101.4-8.9,1.9-16.9,1.7-27.2.3v-132.8c0-6.7,2-13.7,6.8-15.7s13.5-1.8,18.7,3.6l95.8,98.8,2.4-101.2c7.8-2.2,16.2-2.1,26.2.3v135.3c0,4.9-1.9,10.4-4.7,12s-11.7,5-16.3.3Z"/>
  <path class="st0" d="M556.7,189.9c-.4-13.3-5.1-28.9-19-29.2l-65.6-1c-7.4-.1-11.9,5.4-11.9,12.3l-.3,108.5c-9.6,2.2-17.8,2.1-26.7-.3v-109.6c0-18.2,13.3-36.1,32.6-37.3,23.1-1.4,45.8-.7,68.7-.5,30,.3,48.9,24,49.2,52.7.2,15.4-1.1,30.9-11.4,41.9-10.1,10.8-24,17.7-41,17.7l-59.3-.3c-1.2-9.1-.5-17.1-.6-26.4,28.4-7.5,86.5,16,85.2-28.7Z"/>
  <path class="st0" d="M788.4,255.2c3.1,8.3,2.4,17.1.8,26.7l-120.6.2c-9.9,0-16.9-4.5-17-14.8v-133.4c9.2-2.3,18.1-2.2,27.5.6v119.3c0,0,109.2,1.4,109.2,1.4Z"/>
  <path class="st0" d="M1714.1,278c-1.1,7.2-19,4.2-26.3,2.7l-.2-120.3-59-1c-3-7.8-3.1-16.5-1.3-26.6l146.9-.2c1.8,9.3,1,16.4.2,26.2l-58.7,1.9-1.6,117.2Z"/>
  <path class="st0" d="M325.4,207.4c0,48-39.2,87-87.5,87s-87.5-38.9-87.5-87,39.2-87,87.5-87,87.5,38.9,87.5,87ZM227.5,278.3c13.6,10,32.8,8.9,47.2,1.9,32.8-16,50.6-52.5,43.7-88.5-6.3-32.5-33.9-61.9-71.3-64.9,21.8,13.9,27.1,38.6,13.6,60.2-8.1,13.1-20.8,21.4-32.3,31.9-17.7,16.2-22.6,43.4-1,59.3ZM258.9,148.1c-5-10.6-18.1-19.3-33.3-19-34.6.5-60,27.4-67.7,61.1-10.6,46.8,22.3,93.3,71.7,98-10.4-9.5-20.5-19.2-21.9-30.4-6.7-52,74.5-60.4,51.3-109.6Z"/>
  <path class="st0" d="M1562.1,281.7c-10.9.3-17.9,1.2-27.4-1.2l.3-147.5c8.9-1.1,16-.3,26.6,0l.5,148.7Z"/>
</svg>